<?xml version="1.0" standalone="no"?>
<!DOCTYPE svg PUBLIC "-//W3C//DTD SVG 20010904//EN"
 "http://www.w3.org/TR/2001/REC-SVG-20010904/DTD/svg10.dtd">
<svg version="1.0" xmlns="http://www.w3.org/2000/svg"
 width="500.000000pt" height="500.000000pt" viewBox="0 0 500.000000 500.000000"
 preserveAspectRatio="xMidYMid meet">
<metadata>
Created by potrace 1.14, written by Peter Selinger 2001-2017
</metadata>
<g transform="translate(0.000000,500.000000) scale(0.100000,-0.100000)"
fill="#000000" stroke="none">
<path d="M2406 4639 c2 -3 -11 -6 -29 -7 -18 -1 -43 -4 -57 -8 -14 -3 -41 -8
-60 -11 -19 -3 -37 -9 -40 -14 -3 -4 -12 -4 -19 1 -8 4 -22 4 -33 -1 -10 -5
-27 -14 -38 -19 -11 -6 -20 -6 -20 -1 0 8 -77 -14 -135 -39 -11 -5 -42 -16
-70 -26 -27 -10 -53 -23 -57 -28 -4 -6 -8 -7 -8 -3 0 5 -13 1 -30 -7 -16 -9
-42 -22 -57 -30 -82 -41 -188 -102 -209 -121 -6 -5 -22 -17 -34 -25 -12 -8
-28 -21 -36 -27 -7 -7 -16 -13 -19 -13 -4 0 -17 -9 -29 -19 -152 -139 -174
-161 -280 -276 -21 -22 -44 -52 -52 -67 -8 -16 -20 -28 -26 -28 -6 0 -9 -2 -6
-5 3 -3 -8 -20 -23 -36 -16 -17 -29 -37 -29 -44 0 -7 -4 -15 -8 -17 -27 -11
-184 -324 -232 -463 -17 -49 -40 -130 -51 -180 -12 -49 -27 -111 -34 -138 -7
-27 -9 -50 -4 -53 5 -3 6 -11 2 -17 -24 -39 -36 -360 -19 -537 8 -93 12 -125
15 -125 1 0 4 -12 6 -26 17 -126 48 -254 96 -389 36 -102 148 -330 162 -330 6
0 8 -3 4 -6 -7 -7 61 -108 141 -209 81 -102 260 -278 328 -321 16 -10 31 -21
34 -25 11 -13 110 -79 120 -79 5 0 10 -4 10 -10 0 -5 6 -10 14 -10 8 0 16 -3
18 -8 5 -12 198 -109 263 -132 33 -12 69 -25 80 -30 17 -8 75 -24 120 -35 6
-1 21 -5 35 -8 14 -4 39 -8 55 -11 92 -13 115 -16 165 -22 74 -8 468 -8 555 1
96 9 126 12 158 19 15 3 39 8 55 12 15 3 41 8 57 11 17 3 38 6 48 7 9 0 17 3
17 6 0 3 12 7 26 8 14 1 31 5 37 9 7 4 17 8 22 10 37 8 55 13 90 28 77 32 130
58 158 77 15 11 27 17 27 14 0 -6 144 89 200 132 86 67 161 141 214 212 23 30
44 57 49 58 4 2 7 8 7 14 0 5 9 23 21 39 11 16 17 29 12 29 -4 0 -3 4 2 8 28
20 64 153 60 219 -6 99 -34 163 -104 231 -72 71 -140 115 -176 115 -8 0 -15 4
-15 8 0 6 -120 49 -150 54 -31 5 -119 30 -132 37 -12 6 -18 5 -18 -3 0 -8 -3
-9 -14 0 -15 12 -53 20 -138 26 -51 4 -59 2 -70 -18 -7 -12 -11 -25 -10 -29 1
-5 -2 -8 -8 -8 -5 0 -10 -6 -10 -13 0 -20 -53 -97 -67 -97 -7 0 -12 -3 -11 -7
2 -5 -1 -10 -7 -12 -5 -2 -15 -11 -22 -20 -7 -9 -13 -12 -13 -7 0 5 -8 0 -17
-11 -32 -35 -206 -127 -231 -121 -4 1 -27 -4 -51 -11 -23 -7 -49 -10 -56 -7
-7 2 -16 2 -19 -1 -8 -8 -89 -7 -153 2 -53 7 -153 38 -195 61 -16 8 -28 12
-28 9 0 -3 -6 -1 -12 5 -7 5 -47 32 -88 59 -83 53 -126 92 -185 166 -22 28
-43 52 -47 53 -5 2 -8 8 -8 14 0 5 -12 25 -26 44 -15 19 -23 34 -20 34 4 0 -2
10 -14 22 -11 12 -20 25 -20 29 0 3 -9 27 -20 53 -12 25 -21 48 -20 51 0 3 -7
19 -16 36 -8 17 -13 33 -10 36 3 3 1 13 -3 22 -24 45 -58 332 -42 365 2 4 5
29 8 55 8 88 10 96 20 116 6 11 11 23 12 28 1 4 1 8 2 10 0 1 2 9 4 17 13 66
98 232 148 288 11 12 17 22 14 22 -4 0 11 17 34 37 22 20 59 55 82 78 180 177
499 222 742 104 36 -18 79 -45 95 -61 17 -15 34 -28 39 -28 6 0 14 -6 18 -14
4 -7 22 -30 38 -50 58 -72 71 -91 94 -141 33 -69 48 -109 57 -147 1 -5 2 -9 4
-10 1 -2 3 -23 4 -48 2 -25 6 -55 10 -68 l7 -22 247 5 c241 4 301 8 372 21 19
4 44 8 55 9 11 2 40 8 65 15 25 6 52 12 61 14 52 7 207 104 192 120 -3 3 -1 6
6 6 10 0 24 25 30 52 1 4 8 22 15 40 16 39 19 216 5 273 -5 22 -12 51 -15 65
-3 14 -7 30 -8 35 -2 6 -9 24 -16 40 -7 17 -19 46 -28 65 -33 80 -47 107 -74
147 -15 23 -28 46 -28 52 0 6 -4 11 -10 11 -5 0 -10 5 -10 11 0 6 -6 16 -12
23 -7 7 -24 28 -38 47 -34 46 -255 267 -305 304 -22 17 -46 36 -53 42 -7 7
-34 25 -60 40 -26 15 -49 30 -52 33 -9 10 -165 97 -187 104 -13 4 -23 12 -23
17 0 5 -4 9 -9 9 -5 0 -26 8 -47 17 -22 9 -42 16 -46 15 -5 -1 -8 3 -8 9 0 5
-4 7 -10 4 -5 -3 -10 -1 -10 4 0 6 -3 10 -7 10 -5 -1 -11 0 -15 1 -5 1 -11 3
-15 5 -5 1 -17 5 -28 9 -76 29 -95 35 -95 30 0 -4 -6 -2 -12 3 -16 12 -52 23
-98 29 -19 3 -37 9 -38 15 -2 5 -7 7 -11 5 -3 -2 -29 0 -56 5 -83 16 -128 22
-167 23 -21 1 -38 4 -38 8 0 4 -11 3 -24 -2 -13 -5 -27 -6 -31 -2 -8 8 -295 9
-289 1z"/>
</g>
</svg>
